<?xml version="1.0" encoding="UTF-8"?>
<svg width="128" height="128" viewBox="0 0 128 128" fill="none" xmlns="http://www.w3.org/2000/svg">
  <!-- Clean minimalist proxy icon - Error State -->
  <!-- Following Apple's design principles: simple, clear, and functional -->
  
  <!-- Background circle -->
  <circle cx="64" cy="64" r="56" fill="url(#gradient-error)" />
  
  <!-- Center node with X to indicate error -->
  <circle cx="64" cy="64" r="8" fill="white" opacity="0.9" />
  
  <!-- X mark in center -->
  <path d="M60 60 L68 68" stroke="#FF3B30" stroke-width="2" stroke-linecap="round" />
  <path d="M68 60 L60 68" stroke="#FF3B30" stroke-width="2" stroke-linecap="round" />
  
  <!-- Broken connection lines -->
  <path d="M64 56 L64 45" stroke="white" stroke-width="3" stroke-linecap="round" opacity="0.7" />
  <path d="M64 72 L64 83" stroke="white" stroke-width="3" stroke-linecap="round" opacity="0.7" />
  <path d="M56 64 L45 64" stroke="white" stroke-width="3" stroke-linecap="round" opacity="0.7" />
  <path d="M72 64 L83 64" stroke="white" stroke-width="3" stroke-linecap="round" opacity="0.7" />
  
  <!-- Broken diagonal connections -->
  <path d="M58 58 L50 50" stroke="white" stroke-width="2.5" stroke-linecap="round" opacity="0.5" stroke-dasharray="3 3" />
  <path d="M70 58 L78 50" stroke="white" stroke-width="2.5" stroke-linecap="round" opacity="0.5" stroke-dasharray="3 3" />
  <path d="M58 70 L50 78" stroke="white" stroke-width="2.5" stroke-linecap="round" opacity="0.5" stroke-dasharray="3 3" />
  <path d="M70 70 L78 78" stroke="white" stroke-width="2.5" stroke-linecap="round" opacity="0.5" stroke-dasharray="3 3" />
  
  <!-- Endpoint nodes with error indication -->
  <circle cx="64" cy="40" r="5" fill="white" opacity="0.7" />
  <circle cx="64" cy="40" r="2" fill="#FF3B30" />
  
  <circle cx="64" cy="88" r="5" fill="white" opacity="0.7" />
  <circle cx="40" cy="64" r="5" fill="white" opacity="0.7" />
  <circle cx="88" cy="64" r="5" fill="white" opacity="0.7" />
  
  <circle cx="46" cy="46" r="4" fill="white" opacity="0.5" />
  <circle cx="82" cy="46" r="4" fill="white" opacity="0.5" />
  <circle cx="46" cy="82" r="4" fill="white" opacity="0.5" />
  <circle cx="82" cy="82" r="4" fill="white" opacity="0.5" />
  
  <!-- Gradient definition -->
  <defs>
    <linearGradient id="gradient-error" x1="0%" y1="0%" x2="100%" y2="100%">
      <stop offset="0%" stop-color="#FF453A" />
      <stop offset="100%" stop-color="#FF3B30" />
    </linearGradient>
  </defs>
</svg>
